<?xml version="1.0" encoding="UTF-8" standalone="no"?>
<svg width="189px" height="31px" viewBox="0 0 189 31" version="1.1" xmlns="http://www.w3.org/2000/svg" xmlns:xlink="http://www.w3.org/1999/xlink">
    <!-- Generator: Sketch 40.1 (33804) - http://www.bohemiancoding.com/sketch -->
    <title>Logo</title>
    <desc>Created with Sketch.</desc>
    <defs>
        <polygon id="path-1" points="0 30.5738194 188.751173 30.5738194 188.751173 -4.62686567e-05 0 -4.62686567e-05"></polygon>
    </defs>
    <g id="Page-1" stroke="none" stroke-width="1" fill="none" fill-rule="evenodd">
        <g id="Desktop-HD-Copy-2" transform="translate(-82.000000, -28.000000)">
            <g id="Logo" transform="translate(82.000000, 28.000000)">
                <path d="M61.587123,10.7305806 C61.587123,7.39784925 60.542864,5.2676403 57.0030799,5.2676403 C54.6435259,5.2676403 52.5572741,7.11653582 51.7894899,9.07878955 L51.7351014,9.07878955 C51.4314324,6.5835209 50.1437849,5.2676403 47.3989791,5.2676403 C45.2587921,5.2676403 42.8144827,7.11653582 42.1282813,9.2185209 L42.0734396,9.2185209 C42.0734396,9.2185209 42.1826698,8.71372985 42.1826698,8.07013284 L42.1826698,5.60401343 L41.0319,5.60401343 L41.0319,19.6127746 L42.1826698,19.6127746 L42.1826698,12.7765806 C42.1826698,12.104297 42.2375115,11.4588493 42.4047561,10.8707746 C43.0329432,8.54531194 44.955123,6.36050597 47.3989791,6.36050597 C50.4166338,6.36050597 50.7452309,8.74149104 50.7452309,11.1525507 L50.7452309,19.6127746 L51.8987201,19.6127746 L51.8987201,12.7765806 C51.8987201,11.964103 51.9812094,11.2635955 52.1724755,10.6195358 C52.7761878,8.43426716 54.7251086,6.36050597 57.0030799,6.36050597 C59.9115043,6.36050597 60.4336338,8.51755075 60.4336338,11.1525507 L60.4336338,13.3503119 C60.8052885,13.1703269 61.1909935,13.0144015 61.587123,12.8857746 L61.587123,10.7305806 L61.587123,10.7305806 Z" id="Fill-1" fill="#FFFFFF"></path>
                <path d="M73.6319978,12.1601433 L74.5099187,12.1601433 L74.5099187,12.9166358 C74.5099187,14.4069493 74.0036525,15.9953522 73.0853935,17.1613224 C73.1071489,17.1830687 73.1316237,17.2080537 73.1538324,17.2307254 C73.3586957,17.4468 73.5662784,17.6688896 73.7720482,17.889591 C74.3263576,17.1548448 74.5783576,16.5024567 74.5643072,16.5024567 L74.6218683,16.5024567 C74.6218683,16.5024567 74.5099187,17.0077104 74.5099187,17.7637403 L74.5099187,18.679397 C74.8049763,18.9949493 75.0973144,19.3063373 75.3928252,19.6126358 L75.6634079,19.6126358 L75.6634079,10.5634119 C75.6634079,7.06087463 73.9628612,5.26796418 70.8056094,5.26796418 C67.8146957,5.26796418 66.1662712,6.81009851 66.1662712,6.81009851 L66.8248252,7.76184478 C66.8248252,7.76184478 68.3640194,6.41635224 70.7507676,6.41635224 C72.9457964,6.41635224 74.5099187,7.48099403 74.5099187,10.5911731 L74.5099187,11.0677403 L73.6048036,11.0677403 C71.8802353,11.0677403 68.3585806,11.1038299 66.4314151,12.7963373 C66.8769475,12.9129343 67.3061633,13.0559045 67.721782,13.2275612 C69.3783647,12.1666209 72.087818,12.1601433 73.6319978,12.1601433" id="Fill-3" fill="#FFFFFF"></path>
                <path d="M81.4534252,13.5609269 C81.4534252,12.6374045 81.5626554,11.5991358 81.863605,10.6196284 C82.4673173,8.54540448 83.8129791,6.69650896 85.9536194,6.69650896 C86.2568353,6.69650896 86.5845259,6.75249403 86.5845259,6.75249403 L86.5845259,5.57680746 C86.5845259,5.57680746 86.1997273,5.49306119 85.7890942,5.49306119 C83.6212597,5.49306119 82.0852381,7.25682239 81.3990367,9.41386716 L81.344195,9.41386716 C81.344195,9.41386716 81.4534252,8.90953881 81.4534252,8.26732985 L81.4534252,5.60410597 L80.299936,5.60410597 L80.299936,19.6128672 L81.4534252,19.6128672 L81.4534252,13.5609269 Z" id="Fill-5" fill="#FFFFFF"></path>
                <path d="M95.3656835,18.7986776 C92.1563094,18.7986776 89.4935396,16.3621701 89.4935396,12.6375433 C89.4935396,8.85461791 92.1563094,6.4162597 95.3656835,6.4162597 C98.0008058,6.4162597 99.5649281,8.20917015 99.5649281,8.20917015 L100.278324,7.25696119 C100.278324,7.25696119 98.6326187,5.26787164 95.3656835,5.26787164 C91.5521439,5.26787164 88.2852086,8.18140896 88.2852086,12.6375433 C88.2852086,16.5953642 90.8274173,19.2821851 94.1084029,19.831394 C94.5729712,19.4908567 95.0352734,19.141991 95.4971223,18.7894239 C95.4504388,18.7903493 95.4123669,18.7986776 95.3656835,18.7986776" id="Fill-7" fill="#FFFFFF"></path>
                <path d="M111.281659,5.2677791 C107.853371,5.2677791 105.931191,7.90092836 105.463904,9.2186597 L105.409515,9.2186597 C105.409515,9.2186597 105.518745,8.71340597 105.518745,8.07027164 L105.518745,9.25373134e-05 L104.367976,9.25373134e-05 L104.367976,19.6129134 L105.518745,19.6129134 L105.518745,12.7767194 C105.518745,12.1039731 105.573587,11.4589881 105.739925,10.8704507 C106.423407,8.26691343 108.704098,6.41616716 111.281659,6.41616716 C114.356875,6.41616716 114.657824,8.71340597 114.657824,11.1526896 L114.657824,19.6129134 L115.811314,19.6129134 L115.811314,10.7307194 C115.811314,7.42482388 114.849091,5.2677791 111.281659,5.2677791" id="Fill-9" fill="#FFFFFF"></path>
                <path d="M126.156186,5.2677791 C122.643142,5.2677791 119.485437,7.90092836 119.485437,12.6374507 C119.485437,17.090809 122.697531,19.9488239 126.568632,19.9488239 C129.532351,19.9488239 131.451358,18.0152567 131.451358,18.0152567 L130.822718,17.0357493 C130.822718,17.0357493 129.201488,18.7985851 126.568632,18.7985851 C123.384186,18.7985851 120.693768,16.4745104 120.693768,12.4121224 L131.699732,12.4121224 C131.699732,12.4121224 131.755027,11.9642418 131.755027,11.6560925 C131.755027,8.26691343 129.887236,5.2677791 126.156186,5.2677791 L126.156186,5.2677791 Z M120.775804,11.3197194 C121.27074,8.04019701 123.602646,6.36018209 126.128538,6.36018209 C128.406056,6.36018209 130.409819,7.90092836 130.546696,11.3197194 L120.775804,11.3197194 Z" id="Fill-11" fill="#FFFFFF"></path>
                <path d="M145.366109,7.48090149 C145.366109,7.81727463 145.448145,8.01299104 145.448145,8.01299104 L145.393757,8.01299104 C145.393757,8.01299104 144.515836,5.26787164 140.617541,5.26787164 C137.050109,5.26787164 134.718203,8.01299104 134.718203,12.3844537 C134.718203,16.7545284 137.241376,19.613006 140.808807,19.613006 C143.089045,19.613006 144.598325,18.4641552 145.420951,16.7545284 L145.47534,16.7545284 C145.47534,16.7545284 145.366109,17.2588567 145.366109,17.9029164 L145.366109,19.528797 C145.366109,22.9184388 143.089045,24.3472149 140.152973,24.3472149 C138.176404,24.3472149 136.473138,23.3677075 136.473138,23.3677075 L135.923814,24.4032 C137.269023,25.1037075 138.723462,25.496991 140.235009,25.496991 C143.499224,25.496991 146.520052,23.8142 146.520052,19.528797 L146.520052,5.60378209 L145.366109,5.60378209 L145.366109,7.48090149 Z M140.894016,18.4641552 C137.954771,18.4641552 135.923814,16.1669164 135.923814,12.3844537 C135.923814,8.60152836 137.681469,6.4162597 140.617541,6.4162597 C143.307505,6.4162597 145.393757,7.8732597 145.393757,12.3844537 C145.393757,16.923409 143.307505,18.4641552 140.894016,18.4641552 L140.894016,18.4641552 Z" id="Fill-13" fill="#FFFFFF"></path>
                <mask id="mask-2" fill="white">
                    <use xlink:href="#path-1"></use>
                </mask>
                <g id="Clip-16"></g>
                <polygon id="Fill-15" fill="#FFFFFF" mask="url(#mask-2)" points="151.238525 2.04595373 152.610928 2.04595373 152.610928 -4.62686567e-05 151.238525 -4.62686567e-05"></polygon>
                <polygon id="Fill-17" fill="#FFFFFF" mask="url(#mask-2)" points="151.347755 19.6127746 152.498978 19.6127746 152.498978 5.60401343 151.347755 5.60401343"></polygon>
                <path d="M161.913671,5.2677791 C158.920491,5.2677791 157.274786,6.81037612 157.274786,6.81037612 L157.93334,7.76212239 C157.93334,7.76212239 159.469362,6.41616716 161.859283,6.41616716 C164.054312,6.41616716 165.617981,7.48080896 165.617981,10.5914507 L165.617981,11.0675552 L164.713319,11.0675552 C162.269009,11.0675552 156.202427,11.1244657 156.202427,15.8850478 C156.202427,18.6875403 158.646736,19.9488239 160.869412,19.9488239 C164.436844,19.9488239 165.700017,16.5022716 165.672822,16.5022716 L165.727211,16.5022716 C165.727211,16.5022716 165.617981,17.0075254 165.617981,17.7640179 L165.617981,19.6129134 L166.77147,19.6129134 L166.77147,10.5632269 C166.77147,7.06068955 165.068657,5.2677791 161.913671,5.2677791 L161.913671,5.2677791 Z M165.617981,12.9164507 C165.617981,15.689794 163.914714,18.8564209 160.923801,18.8564209 C158.592347,18.8564209 157.410758,17.2869881 157.410758,15.8022269 C157.410758,12.1599582 162.405887,12.1599582 164.74006,12.1599582 L165.617981,12.1599582 L165.617981,12.9164507 Z" id="Fill-18" fill="#FFFFFF" mask="url(#mask-2)"></path>
                <path d="M178.321863,5.2677791 C174.894028,5.2677791 172.971848,7.90092836 172.504107,9.2186597 L172.449719,9.2186597 C172.449719,9.2186597 172.558949,8.71340597 172.558949,8.07027164 L172.558949,5.60415224 L171.408179,5.60415224 L171.408179,19.6129134 L172.558949,19.6129134 L172.558949,12.7767194 C172.558949,12.1039731 172.613791,11.4589881 172.780129,10.8704507 C173.463611,8.26691343 175.744301,6.41616716 178.321863,6.41616716 C181.397078,6.41616716 181.698028,8.71340597 181.698028,11.1526896 L181.698028,19.6129134 L182.851517,19.6129134 L182.851517,10.7307194 C182.851517,7.42482388 181.892014,5.2677791 178.321863,5.2677791" id="Fill-19" fill="#FFFFFF" mask="url(#mask-2)"></path>
                <polygon id="Fill-20" fill="#FFFFFF" mask="url(#mask-2)" points="187.488 19.6127746 188.641942 19.6127746 188.641942 5.60401343 187.488 5.60401343"></polygon>
                <polygon id="Fill-21" fill="#FFFFFF" mask="url(#mask-2)" points="187.37877 2.04595373 188.751173 2.04595373 188.751173 -4.62686567e-05 187.37877 -4.62686567e-05"></polygon>
                <path d="M100.398658,17.0925209 C100.321608,17.0744761 100.242745,17.0619836 100.160709,17.0619836 C99.9771475,17.0619836 99.6657734,17.3257149 99.5152986,17.4432373 C98.5068453,18.2293418 97.473464,19.0561627 96.4210468,19.8667896 C92.5581043,22.8372373 88.3642986,25.6198343 83.6270612,25.6198343 C83.3968165,25.6198343 83.1674784,25.6142821 82.9354209,25.5999388 C78.6051906,25.3524015 75.6904209,22.0192075 72.7874353,18.9053269 C72.5739604,18.6767597 72.3609388,18.4491179 72.147464,18.2237896 C72.1180036,18.1932522 72.0876367,18.164103 72.057723,18.1317149 C70.4636871,16.4688194 68.6815576,15.0284761 66.6605719,14.3427746 C66.2812122,14.2141478 65.8927878,14.110506 65.4966583,14.0378642 C65.0620036,13.9596701 64.6214568,13.9078493 64.1677662,13.9078493 C63.8369029,13.9078493 63.501054,13.9295955 63.1588597,13.9749388 C62.609536,14.0480433 62.0928453,14.2099836 61.5870324,14.4075507 C61.1909029,14.5639388 60.8056511,14.7485507 60.4335432,14.9641627 C58.7606439,15.9385806 57.3034856,17.4395358 55.9360683,18.823894 C52.907536,21.8938194 49.8155504,24.3048791 45.5591978,24.5561179 C45.4250396,24.564909 45.294054,24.5686104 45.1630683,24.5686104 C41.9944856,24.5686104 39.6403705,22.2732224 37.7403993,19.6618194 C33.9594928,14.4616851 31.3955288,7.3825806 25.3099101,4.90813284 C24.0526295,4.39778955 22.8225432,4.16690896 21.6246367,4.16690896 C15.9002482,4.16690896 10.9413777,9.41377463 7.64996763,14.3029836 C4.49226259,18.9946254 1.90110432,24.3807597 0.0419244604,29.8478642 C-0.124866906,30.3378493 0.233190647,30.5738194 0.63521223,30.5738194 C0.979219424,30.5738194 1.35404676,30.4030881 1.46916906,30.0713418 C3.00791007,25.5384015 5.09144245,21.1502821 7.48045683,17.0971478 C10.5611115,11.8729537 15.3676942,5.49805821 21.398018,5.49805821 C22.2754856,5.49805821 23.1806007,5.63362537 24.1101906,5.92835672 C30.441464,7.92901343 33.1699532,16.2619985 37.0818453,21.3219388 C38.8095863,23.5576403 40.9606511,25.2945657 43.6456295,25.7479985 C44.1650396,25.8354463 44.6898885,25.8780134 45.2147374,25.8780134 C48.1453705,25.8780134 51.0814424,24.5732373 53.4600324,22.8108642 C55.9528381,20.962894 57.8881619,18.1960284 60.4335432,16.4382821 C60.8056511,16.1824164 61.1881835,15.9510731 61.5870324,15.7442522 C61.6500324,15.7127896 61.7048741,15.6711478 61.7678741,15.6401478 C62.546536,15.2607448 63.3093345,15.0927896 64.0530971,15.0927896 C64.4247518,15.0927896 64.7909676,15.1432224 65.1517446,15.2200284 C65.5483273,15.3051627 65.9394712,15.4324015 66.3220036,15.5952672 C67.8584784,16.2485806 69.2879892,17.4612821 70.5815288,18.754491 C70.8711475,19.0473716 71.1553273,19.3407149 71.4313489,19.6345209 C72.0033345,20.2438791 72.5467662,20.8444463 73.0498597,21.3857896 C76.1776511,24.7476701 79.4930827,26.8704761 83.7856942,26.8704761 C84.2176295,26.8704761 84.6627086,26.8487299 85.1168525,26.8052373 C90.9015216,26.240297 95.9587446,21.7989687 100.513327,18.2492373 C101.046788,17.8346701 100.855068,17.2054164 100.398658,17.0925209" id="Fill-22" fill="#FFFFFF" mask="url(#mask-2)"></path>
                <path d="M74.5096921,19.6128672 L75.3925986,19.6128672 C75.097541,19.3065687 74.8047496,18.9947179 74.5096921,18.6791657 L74.5096921,19.6128672 Z" id="Fill-23" fill="#FFFFFF" mask="url(#mask-2)"></path>
            </g>
        </g>
    </g>
</svg>